<mxfile host="app.diagrams.net" modified="2023-04-19T08:06:30.453Z" agent="Mozilla/5.0 (Windows NT 10.0; Win64; x64) AppleWebKit/537.36 (KHTML, like Gecko) Chrome/112.0.0.0 Safari/537.36" etag="FiAZL6i1abHIIkd721xR" version="21.1.8" type="github">
  <diagram name="Page-1" id="073-A5HoCjjV2lGI__am">
    <mxGraphModel dx="2314" dy="1116" grid="1" gridSize="10" guides="1" tooltips="1" connect="1" arrows="1" fold="1" page="1" pageScale="1" pageWidth="850" pageHeight="1100" math="0" shadow="0">
      <root>
        <mxCell id="0" />
        <mxCell id="1" parent="0" />
        <mxCell id="Dz097fD4-B_uXPN6w9cI-14" style="edgeStyle=orthogonalEdgeStyle;rounded=0;orthogonalLoop=1;jettySize=auto;html=1;entryX=0;entryY=0.5;entryDx=0;entryDy=0;" edge="1" parent="1" source="Dz097fD4-B_uXPN6w9cI-1" target="Dz097fD4-B_uXPN6w9cI-13">
          <mxGeometry relative="1" as="geometry">
            <Array as="points">
              <mxPoint x="250" y="320" />
              <mxPoint x="250" y="235" />
            </Array>
          </mxGeometry>
        </mxCell>
        <mxCell id="Dz097fD4-B_uXPN6w9cI-15" style="edgeStyle=orthogonalEdgeStyle;rounded=0;orthogonalLoop=1;jettySize=auto;html=1;entryX=0;entryY=0.5;entryDx=0;entryDy=0;" edge="1" parent="1" source="Dz097fD4-B_uXPN6w9cI-1" target="Dz097fD4-B_uXPN6w9cI-12">
          <mxGeometry relative="1" as="geometry">
            <mxPoint x="320" y="350" as="targetPoint" />
            <Array as="points">
              <mxPoint x="245" y="290" />
              <mxPoint x="245" y="345" />
            </Array>
          </mxGeometry>
        </mxCell>
        <mxCell id="Dz097fD4-B_uXPN6w9cI-24" style="edgeStyle=orthogonalEdgeStyle;rounded=0;orthogonalLoop=1;jettySize=auto;html=1;entryX=-0.007;entryY=0.7;entryDx=0;entryDy=0;entryPerimeter=0;" edge="1" parent="1" source="Dz097fD4-B_uXPN6w9cI-1" target="Dz097fD4-B_uXPN6w9cI-23">
          <mxGeometry relative="1" as="geometry">
            <Array as="points">
              <mxPoint x="225" y="340" />
              <mxPoint x="225" y="599" />
            </Array>
          </mxGeometry>
        </mxCell>
        <mxCell id="Dz097fD4-B_uXPN6w9cI-1" value="Doctor" style="shape=umlActor;verticalLabelPosition=bottom;verticalAlign=top;html=1;" vertex="1" parent="1">
          <mxGeometry x="80" y="270" width="40" height="80" as="geometry" />
        </mxCell>
        <mxCell id="Dz097fD4-B_uXPN6w9cI-10" style="edgeStyle=orthogonalEdgeStyle;rounded=0;orthogonalLoop=1;jettySize=auto;html=1;" edge="1" parent="1" source="Dz097fD4-B_uXPN6w9cI-4" target="Dz097fD4-B_uXPN6w9cI-9">
          <mxGeometry relative="1" as="geometry" />
        </mxCell>
        <mxCell id="Dz097fD4-B_uXPN6w9cI-11" style="edgeStyle=orthogonalEdgeStyle;rounded=0;orthogonalLoop=1;jettySize=auto;html=1;" edge="1" parent="1" source="Dz097fD4-B_uXPN6w9cI-4" target="Dz097fD4-B_uXPN6w9cI-8">
          <mxGeometry relative="1" as="geometry">
            <Array as="points">
              <mxPoint x="230" y="500" />
              <mxPoint x="230" y="455" />
            </Array>
          </mxGeometry>
        </mxCell>
        <mxCell id="Dz097fD4-B_uXPN6w9cI-25" style="edgeStyle=orthogonalEdgeStyle;rounded=0;orthogonalLoop=1;jettySize=auto;html=1;entryX=0.743;entryY=0.071;entryDx=0;entryDy=0;entryPerimeter=0;" edge="1" parent="1" source="Dz097fD4-B_uXPN6w9cI-4" target="Dz097fD4-B_uXPN6w9cI-23">
          <mxGeometry relative="1" as="geometry">
            <Array as="points">
              <mxPoint x="190" y="540" />
              <mxPoint x="190" y="555" />
            </Array>
          </mxGeometry>
        </mxCell>
        <mxCell id="Dz097fD4-B_uXPN6w9cI-27" style="edgeStyle=orthogonalEdgeStyle;rounded=0;orthogonalLoop=1;jettySize=auto;html=1;entryX=0.571;entryY=1;entryDx=0;entryDy=0;entryPerimeter=0;" edge="1" parent="1" source="Dz097fD4-B_uXPN6w9cI-4" target="Dz097fD4-B_uXPN6w9cI-23">
          <mxGeometry relative="1" as="geometry">
            <Array as="points">
              <mxPoint x="160" y="560" />
              <mxPoint x="160" y="640" />
              <mxPoint x="410" y="640" />
            </Array>
          </mxGeometry>
        </mxCell>
        <mxCell id="Dz097fD4-B_uXPN6w9cI-4" value="Lab Technician&amp;nbsp;" style="shape=umlActor;verticalLabelPosition=bottom;verticalAlign=top;html=1;" vertex="1" parent="1">
          <mxGeometry x="80" y="480" width="40" height="80" as="geometry" />
        </mxCell>
        <mxCell id="Dz097fD4-B_uXPN6w9cI-20" style="edgeStyle=orthogonalEdgeStyle;rounded=0;orthogonalLoop=1;jettySize=auto;html=1;entryX=-0.007;entryY=0.657;entryDx=0;entryDy=0;entryPerimeter=0;" edge="1" parent="1" target="Dz097fD4-B_uXPN6w9cI-16">
          <mxGeometry relative="1" as="geometry">
            <mxPoint x="120" y="750" as="sourcePoint" />
          </mxGeometry>
        </mxCell>
        <mxCell id="Dz097fD4-B_uXPN6w9cI-21" style="edgeStyle=orthogonalEdgeStyle;rounded=0;orthogonalLoop=1;jettySize=auto;html=1;" edge="1" parent="1" source="Dz097fD4-B_uXPN6w9cI-7" target="Dz097fD4-B_uXPN6w9cI-19">
          <mxGeometry relative="1" as="geometry">
            <Array as="points">
              <mxPoint x="235" y="730" />
              <mxPoint x="235" y="715" />
            </Array>
          </mxGeometry>
        </mxCell>
        <mxCell id="Dz097fD4-B_uXPN6w9cI-22" style="edgeStyle=orthogonalEdgeStyle;rounded=0;orthogonalLoop=1;jettySize=auto;html=1;entryX=0;entryY=0.5;entryDx=0;entryDy=0;" edge="1" parent="1" source="Dz097fD4-B_uXPN6w9cI-7" target="Dz097fD4-B_uXPN6w9cI-18">
          <mxGeometry relative="1" as="geometry">
            <Array as="points">
              <mxPoint x="238" y="770" />
              <mxPoint x="238" y="815" />
            </Array>
          </mxGeometry>
        </mxCell>
        <mxCell id="Dz097fD4-B_uXPN6w9cI-26" style="edgeStyle=orthogonalEdgeStyle;rounded=0;orthogonalLoop=1;jettySize=auto;html=1;entryX=0.1;entryY=0.843;entryDx=0;entryDy=0;entryPerimeter=0;" edge="1" parent="1" source="Dz097fD4-B_uXPN6w9cI-7" target="Dz097fD4-B_uXPN6w9cI-23">
          <mxGeometry relative="1" as="geometry">
            <Array as="points">
              <mxPoint x="100" y="690" />
              <mxPoint x="344" y="690" />
            </Array>
          </mxGeometry>
        </mxCell>
        <mxCell id="Dz097fD4-B_uXPN6w9cI-7" value="System Administrator" style="shape=umlActor;verticalLabelPosition=bottom;verticalAlign=top;html=1;" vertex="1" parent="1">
          <mxGeometry x="80" y="710" width="40" height="80" as="geometry" />
        </mxCell>
        <mxCell id="Dz097fD4-B_uXPN6w9cI-8" value="Update / upload patient scans&amp;nbsp;" style="ellipse;whiteSpace=wrap;html=1;" vertex="1" parent="1">
          <mxGeometry x="340" y="420" width="140" height="70" as="geometry" />
        </mxCell>
        <mxCell id="Dz097fD4-B_uXPN6w9cI-9" value="Delete scans from patient file&amp;nbsp;" style="ellipse;whiteSpace=wrap;html=1;" vertex="1" parent="1">
          <mxGeometry x="470" y="390" width="150" height="70" as="geometry" />
        </mxCell>
        <mxCell id="Dz097fD4-B_uXPN6w9cI-12" value="Fetch structural information for a patient scan&amp;nbsp;" style="ellipse;whiteSpace=wrap;html=1;" vertex="1" parent="1">
          <mxGeometry x="370" y="310" width="140" height="70" as="geometry" />
        </mxCell>
        <mxCell id="Dz097fD4-B_uXPN6w9cI-13" value="Fetch segmentation information for a patient scan" style="ellipse;whiteSpace=wrap;html=1;" vertex="1" parent="1">
          <mxGeometry x="380" y="200" width="140" height="70" as="geometry" />
        </mxCell>
        <mxCell id="Dz097fD4-B_uXPN6w9cI-16" value="Add/Register API service&amp;nbsp;" style="ellipse;whiteSpace=wrap;html=1;" vertex="1" parent="1">
          <mxGeometry x="350" y="880" width="140" height="70" as="geometry" />
        </mxCell>
        <mxCell id="Dz097fD4-B_uXPN6w9cI-18" value="Manage &lt;br&gt;Database&amp;nbsp;" style="ellipse;whiteSpace=wrap;html=1;" vertex="1" parent="1">
          <mxGeometry x="355" y="780" width="140" height="70" as="geometry" />
        </mxCell>
        <mxCell id="Dz097fD4-B_uXPN6w9cI-19" value="Delete / Deregister &lt;br&gt;API service&amp;nbsp;" style="ellipse;whiteSpace=wrap;html=1;" vertex="1" parent="1">
          <mxGeometry x="350" y="680" width="140" height="70" as="geometry" />
        </mxCell>
        <mxCell id="Dz097fD4-B_uXPN6w9cI-23" value="Authentication and Authorization&amp;nbsp;" style="ellipse;whiteSpace=wrap;html=1;" vertex="1" parent="1">
          <mxGeometry x="330" y="550" width="140" height="70" as="geometry" />
        </mxCell>
      </root>
    </mxGraphModel>
  </diagram>
</mxfile>
